<?xml version="1.0" encoding="UTF-8"?>
<svg xmlns="http://www.w3.org/2000/svg" xmlns:xlink="http://www.w3.org/1999/xlink" width="375pt" height="374.999991pt" viewBox="0 0 375 374.999991" version="1.2">
<defs>
<clipPath id="clip1">
  <path d="M 139 0 L 310.6875 0 L 310.6875 162 L 139 162 Z M 139 0 "/>
</clipPath>
<clipPath id="clip2">
  <path d="M 64.6875 61 L 213 61 L 213 375 L 64.6875 375 Z M 64.6875 61 "/>
</clipPath>
</defs>
<g id="surface1">
<path style=" stroke:none;fill-rule:nonzero;fill:rgb(100%,8.628845%,8.628845%);fill-opacity:1;" d="M 178.914062 256.203125 L 309.679688 256.203125 L 309.679688 210.292969 L 178.914062 210.292969 Z M 178.914062 256.203125 "/>
<path style=" stroke:none;fill-rule:nonzero;fill:rgb(100%,8.628845%,8.628845%);fill-opacity:1;" d="M 237.597656 207.660156 C 237.597656 207.660156 237.597656 191.335938 237.597656 187.335938 C 237.574219 184.804688 237.078125 180.496094 234.550781 176.3125 C 232.101562 172.113281 226.984375 168.351562 219.632812 168.445312 C 211.894531 168.40625 206.828125 173.113281 204.265625 177.285156 C 201.613281 181.5 200.84375 185.429688 200.785156 185.675781 L 207.832031 187.082031 C 207.832031 187.082031 207.847656 186.988281 207.929688 186.671875 C 208.210938 185.566406 209.191406 182.515625 211.09375 180.035156 C 213.054688 177.53125 215.472656 175.65625 219.632812 175.621094 C 224.734375 175.710938 226.804688 177.601562 228.421875 180.054688 C 229.96875 182.515625 230.433594 185.855469 230.410156 187.335938 C 230.410156 191.339844 230.410156 207.660156 230.410156 207.660156 Z M 237.597656 207.660156 "/>
<path style=" stroke:none;fill-rule:nonzero;fill:rgb(100%,8.628845%,8.628845%);fill-opacity:1;" d="M 243.722656 208.121094 L 251.851562 200.003906 L 255.152344 203.300781 L 259.472656 198.988281 L 250.074219 189.605469 L 245.753906 193.917969 L 249.058594 197.214844 L 240.925781 205.332031 Z M 243.722656 208.121094 "/>
<g clip-path="url(#clip1)" clip-rule="nonzero">
<path style=" stroke:none;fill-rule:nonzero;fill:rgb(100%,8.628845%,8.628845%);fill-opacity:1;" d="M 139.644531 31.707031 C 141.613281 31.925781 143.53125 32.308594 145.390625 32.839844 L 145.390625 6.078125 L 304.890625 6.078125 L 304.890625 155.292969 L 261.058594 155.292969 L 261.058594 157.445312 L 258.183594 157.445312 L 258.183594 136.851562 C 260.359375 137.84375 262.644531 138.808594 265.023438 139.644531 C 268.882812 140.960938 272.855469 142.082031 277.589844 142.125 C 281.203125 142.125 286.027344 141.34375 290.214844 137.625 C 292.246094 135.808594 293.816406 133.390625 294.699219 130.957031 C 295.601562 128.511719 295.910156 126.089844 295.910156 123.777344 C 295.796875 116.726562 293.449219 110.011719 289.15625 100.90625 C 284.804688 91.871094 278.226562 80.683594 268.648438 66.402344 C 265.113281 61.140625 257.972656 59.734375 252.695312 63.261719 C 247.425781 66.789062 246.015625 73.921875 249.546875 79.1875 C 258.734375 92.871094 264.8125 103.3125 268.433594 110.847656 C 269.6875 113.390625 270.621094 115.628906 271.304688 117.496094 C 267.894531 116.179688 264.039062 114.246094 261.050781 112.585938 C 259.351562 111.644531 257.910156 110.792969 256.914062 110.191406 C 256.417969 109.886719 256.03125 109.648438 255.78125 109.492188 C 255.527344 109.332031 255.449219 109.28125 255.449219 109.28125 C 253.726562 108.167969 251.8125 107.582031 249.898438 107.464844 C 249 107.230469 248.058594 107.09375 247.082031 107.09375 L 212.953125 107.09375 C 215.167969 112.792969 216.554688 118.136719 216.644531 123.707031 C 216.644531 126.921875 216.160156 129.753906 215.167969 132.445312 C 214.015625 135.621094 212.003906 138.613281 209.507812 140.835938 C 205.324219 144.550781 200.121094 146.429688 194.027344 146.429688 C 188.761719 146.382812 184.402344 145.179688 180.464844 143.855469 L 180.464844 157.445312 L 178.917969 157.445312 L 178.917969 161.03125 L 310.640625 161.03125 L 310.640625 0.339844 L 139.644531 0.339844 Z M 139.644531 31.707031 "/>
</g>
<path style=" stroke:none;fill-rule:nonzero;fill:rgb(100%,8.628845%,8.628845%);fill-opacity:1;" d="M 145.390625 100.433594 C 143.53125 100.960938 141.613281 101.347656 139.644531 101.5625 L 139.644531 102.789062 L 145.390625 102.789062 Z M 145.390625 100.433594 "/>
<path style=" stroke:none;fill-rule:nonzero;fill:rgb(100%,8.628845%,8.628845%);fill-opacity:1;" d="M 188.644531 64.011719 C 197.417969 77.085938 203.902344 87.90625 208.464844 97.042969 C 211.859375 98.253906 215.515625 98.914062 219.324219 98.914062 C 231.679688 98.914062 242.410156 91.996094 247.855469 81.828125 C 247.621094 81.476562 247.402344 81.140625 247.164062 80.785156 C 246.4375 79.703125 245.890625 78.550781 245.496094 77.367188 L 231.453125 77.367188 C 231.898438 78.007812 232.160156 78.777344 232.160156 79.613281 C 232.160156 81.789062 230.386719 83.558594 228.207031 83.558594 C 226.023438 83.558594 224.253906 81.789062 224.253906 79.613281 C 224.253906 79.394531 224.285156 79.191406 224.320312 78.984375 L 214.375 78.984375 C 211.898438 78.984375 209.886719 76.972656 209.886719 74.5 C 209.886719 72.023438 211.898438 70.015625 214.375 70.015625 L 226.589844 70.015625 C 227.972656 70.015625 229.191406 70.652344 230.015625 71.628906 L 244.792969 71.628906 C 245.140625 67.421875 247.324219 63.402344 251.101562 60.875 C 251.109375 60.867188 251.121094 60.863281 251.132812 60.855469 C 248.40625 45.785156 235.207031 34.351562 219.328125 34.351562 C 202.949219 34.351562 189.421875 46.515625 187.296875 62.289062 C 187.777344 62.828125 188.234375 63.398438 188.644531 64.011719 Z M 217.785156 81.761719 C 219.96875 81.761719 221.738281 83.53125 221.738281 85.710938 C 221.738281 87.886719 219.96875 89.65625 217.785156 89.65625 C 215.605469 89.65625 213.835938 87.886719 213.835938 85.710938 C 213.835938 83.53125 215.605469 81.761719 217.785156 81.761719 Z M 228.445312 60.964844 C 230.625 60.964844 232.394531 62.726562 232.394531 64.910156 C 232.394531 67.085938 230.625 68.855469 228.445312 68.855469 C 226.261719 68.855469 224.492188 67.085938 224.492188 64.910156 C 224.492188 62.726562 226.261719 60.964844 228.445312 60.964844 Z M 214.015625 58.628906 C 216.195312 58.628906 217.964844 60.394531 217.964844 62.574219 C 217.964844 64.753906 216.195312 66.519531 214.015625 66.519531 C 211.832031 66.519531 210.0625 64.753906 210.0625 62.574219 C 210.0625 60.394531 211.832031 58.628906 214.015625 58.628906 Z M 208.867188 79.371094 C 208.867188 81.546875 207.097656 83.316406 204.914062 83.316406 C 202.730469 83.316406 200.964844 81.546875 200.964844 79.371094 C 200.964844 77.191406 202.730469 75.425781 204.914062 75.425781 C 207.097656 75.425781 208.867188 77.191406 208.867188 79.371094 Z M 202.816406 62.875 C 205 62.875 206.769531 64.640625 206.769531 66.820312 C 206.769531 68.996094 205 70.765625 202.816406 70.765625 C 200.636719 70.765625 198.867188 68.996094 198.867188 66.820312 C 198.867188 64.640625 200.636719 62.875 202.816406 62.875 Z M 202.816406 62.875 "/>
<path style=" stroke:none;fill-rule:nonzero;fill:rgb(100%,8.628845%,8.628845%);fill-opacity:1;" d="M 178.914062 144.75 C 179.117188 144.332031 179.316406 143.921875 179.519531 143.523438 C 179.316406 143.449219 179.121094 143.378906 178.914062 143.304688 Z M 178.914062 144.75 "/>
<g clip-path="url(#clip2)" clip-rule="nonzero">
<path style=" stroke:none;fill-rule:nonzero;fill:rgb(100%,8.628845%,8.628845%);fill-opacity:1;" d="M 174.605469 136.851562 C 176.78125 137.84375 179.066406 138.808594 181.449219 139.644531 C 185.304688 140.957031 189.277344 142.082031 194.007812 142.125 C 194.015625 142.125 194.019531 142.125 194.027344 142.125 C 197.640625 142.125 202.453125 141.335938 206.636719 137.625 C 208.667969 135.808594 210.234375 133.390625 211.121094 130.957031 C 212.019531 128.511719 212.332031 126.09375 212.335938 123.777344 C 212.21875 116.726562 209.867188 110.011719 205.574219 100.910156 C 201.226562 91.871094 194.644531 80.683594 185.066406 66.40625 C 181.867188 61.644531 175.730469 60.050781 170.679688 62.398438 C 170.851562 63.789062 170.949219 65.199219 170.949219 66.632812 C 170.949219 71.992188 169.734375 77.070312 167.578125 81.617188 C 175.851562 94.09375 181.453125 103.769531 184.851562 110.84375 C 186.105469 113.390625 187.039062 115.625 187.722656 117.492188 C 184.3125 116.179688 180.457031 114.246094 177.46875 112.585938 C 175.769531 111.644531 174.328125 110.796875 173.332031 110.191406 C 172.835938 109.886719 172.453125 109.644531 172.199219 109.488281 C 171.949219 109.332031 171.867188 109.28125 171.867188 109.28125 C 170.144531 108.164062 168.230469 107.578125 166.316406 107.460938 C 165.414062 107.230469 164.476562 107.089844 163.5 107.089844 L 107.988281 107.089844 C 107 107.089844 106.042969 107.230469 105.132812 107.472656 C 104.582031 107.507812 104.03125 107.570312 103.476562 107.6875 C 101.644531 108.03125 91.367188 110.863281 81.992188 122.816406 C 72.582031 134.746094 64.660156 154.871094 64.6875 187.988281 C 64.6875 198.242188 65.433594 209.761719 67.125 222.769531 C 67.875 228.550781 72.820312 232.769531 78.511719 232.769531 C 79.003906 232.769531 79.503906 232.738281 80.003906 232.671875 C 86.300781 231.855469 90.742188 226.097656 89.925781 219.8125 C 88.34375 207.671875 87.679688 197.125 87.679688 187.988281 C 87.699219 163.925781 92.257812 149.902344 96.882812 141.773438 L 96.882812 356.910156 C 96.882812 366.707031 104.835938 374.648438 114.644531 374.648438 C 124.457031 374.648438 132.414062 366.707031 132.414062 356.910156 L 132.414062 227.394531 L 139.074219 227.394531 L 139.074219 356.910156 C 139.074219 366.707031 147.027344 374.648438 156.835938 374.648438 C 166.648438 374.648438 174.605469 366.707031 174.605469 356.910156 Z M 174.605469 136.851562 "/>
</g>
<path style=" stroke:none;fill-rule:nonzero;fill:rgb(100%,8.628845%,8.628845%);fill-opacity:1;" d="M 168.074219 66.632812 C 168.074219 67.691406 168.023438 68.746094 167.917969 69.796875 C 167.816406 70.851562 167.660156 71.894531 167.453125 72.933594 C 167.246094 73.96875 166.992188 74.992188 166.683594 76.003906 C 166.375 77.015625 166.019531 78.011719 165.613281 78.988281 C 165.207031 79.964844 164.757812 80.917969 164.257812 81.851562 C 163.757812 82.785156 163.214844 83.691406 162.625 84.570312 C 162.039062 85.449219 161.40625 86.296875 160.734375 87.113281 C 160.066406 87.929688 159.355469 88.714844 158.605469 89.460938 C 157.855469 90.207031 157.074219 90.917969 156.253906 91.589844 C 155.4375 92.257812 154.585938 92.886719 153.707031 93.476562 C 152.824219 94.0625 151.917969 94.605469 150.984375 95.105469 C 150.050781 95.601562 149.09375 96.054688 148.117188 96.457031 C 147.136719 96.863281 146.144531 97.21875 145.128906 97.527344 C 144.117188 97.832031 143.089844 98.089844 142.050781 98.296875 C 141.011719 98.5 139.96875 98.65625 138.914062 98.761719 C 137.859375 98.863281 136.804688 98.914062 135.746094 98.914062 C 134.6875 98.914062 133.628906 98.863281 132.574219 98.761719 C 131.523438 98.65625 130.476562 98.5 129.4375 98.296875 C 128.398438 98.089844 127.371094 97.832031 126.359375 97.527344 C 125.347656 97.21875 124.351562 96.863281 123.371094 96.457031 C 122.394531 96.054688 121.4375 95.601562 120.503906 95.105469 C 119.570312 94.605469 118.664062 94.0625 117.78125 93.476562 C 116.902344 92.886719 116.050781 92.257812 115.234375 91.589844 C 114.414062 90.917969 113.632812 90.207031 112.882812 89.460938 C 112.132812 88.714844 111.425781 87.929688 110.753906 87.113281 C 110.082031 86.296875 109.449219 85.449219 108.863281 84.570312 C 108.273438 83.691406 107.730469 82.785156 107.230469 81.851562 C 106.730469 80.917969 106.28125 79.964844 105.875 78.988281 C 105.46875 78.011719 105.113281 77.015625 104.804688 76.003906 C 104.5 74.992188 104.242188 73.96875 104.035156 72.933594 C 103.828125 71.894531 103.671875 70.851562 103.570312 69.796875 C 103.464844 68.746094 103.414062 67.691406 103.414062 66.632812 C 103.414062 65.578125 103.464844 64.523438 103.570312 63.46875 C 103.671875 62.417969 103.828125 61.375 104.035156 60.335938 C 104.242188 59.300781 104.5 58.273438 104.804688 57.261719 C 105.113281 56.25 105.46875 55.257812 105.875 54.28125 C 106.28125 53.304688 106.730469 52.347656 107.230469 51.417969 C 107.730469 50.484375 108.273438 49.578125 108.863281 48.699219 C 109.449219 47.820312 110.082031 46.972656 110.753906 46.15625 C 111.425781 45.339844 112.132812 44.554688 112.882812 43.808594 C 113.632812 43.058594 114.414062 42.351562 115.234375 41.679688 C 116.050781 41.011719 116.902344 40.382812 117.78125 39.792969 C 118.664062 39.207031 119.570312 38.664062 120.503906 38.164062 C 121.4375 37.667969 122.394531 37.214844 123.371094 36.808594 C 124.351562 36.40625 125.347656 36.050781 126.359375 35.742188 C 127.371094 35.4375 128.398438 35.179688 129.4375 34.972656 C 130.476562 34.765625 131.523438 34.613281 132.574219 34.507812 C 133.628906 34.40625 134.6875 34.351562 135.746094 34.351562 C 136.804688 34.351562 137.859375 34.40625 138.914062 34.507812 C 139.96875 34.613281 141.011719 34.765625 142.050781 34.972656 C 143.089844 35.179688 144.117188 35.4375 145.128906 35.742188 C 146.144531 36.050781 147.136719 36.40625 148.117188 36.808594 C 149.09375 37.214844 150.050781 37.667969 150.984375 38.164062 C 151.917969 38.664062 152.824219 39.207031 153.707031 39.792969 C 154.585938 40.382812 155.4375 41.011719 156.253906 41.679688 C 157.074219 42.351562 157.855469 43.058594 158.605469 43.808594 C 159.355469 44.554688 160.066406 45.339844 160.734375 46.15625 C 161.40625 46.972656 162.039062 47.820312 162.625 48.699219 C 163.214844 49.578125 163.757812 50.484375 164.257812 51.417969 C 164.757812 52.347656 165.207031 53.304688 165.613281 54.28125 C 166.019531 55.257812 166.375 56.25 166.683594 57.261719 C 166.992188 58.273438 167.246094 59.300781 167.453125 60.335938 C 167.660156 61.375 167.816406 62.417969 167.917969 63.46875 C 168.023438 64.523438 168.074219 65.578125 168.074219 66.632812 Z M 168.074219 66.632812 "/>
<path style=" stroke:none;fill-rule:nonzero;fill:rgb(100%,8.628845%,8.628845%);fill-opacity:1;" d="M 291.046875 41.617188 C 291.328125 41.894531 291.691406 42.03125 292.0625 42.03125 C 292.429688 42.03125 292.796875 41.894531 293.078125 41.613281 C 293.640625 41.046875 293.636719 40.140625 293.074219 39.585938 L 273.320312 19.910156 C 272.761719 19.347656 271.851562 19.351562 271.289062 19.914062 C 270.726562 20.476562 270.730469 21.378906 271.292969 21.941406 Z M 291.046875 41.617188 "/>
<path style=" stroke:none;fill-rule:nonzero;fill:rgb(100%,8.628845%,8.628845%);fill-opacity:1;" d="M 261.78125 31.460938 C 261.21875 30.902344 260.3125 30.902344 259.75 31.464844 C 259.1875 32.027344 259.191406 32.9375 259.75 33.496094 L 279.503906 53.167969 C 279.785156 53.445312 280.152344 53.585938 280.519531 53.585938 C 280.890625 53.585938 281.257812 53.445312 281.539062 53.164062 C 282.101562 52.601562 282.097656 51.695312 281.535156 51.136719 Z M 261.78125 31.460938 "/>
<path style=" stroke:none;fill-rule:nonzero;fill:rgb(100%,8.628845%,8.628845%);fill-opacity:1;" d="M 298.777344 59.5 C 299.054688 59.761719 299.410156 59.894531 299.765625 59.894531 C 300.144531 59.894531 300.523438 59.746094 300.808594 59.445312 C 301.355469 58.871094 301.332031 57.964844 300.757812 57.417969 L 253.558594 12.59375 C 252.984375 12.046875 252.074219 12.070312 251.527344 12.644531 C 250.980469 13.21875 251.003906 14.125 251.578125 14.671875 Z M 298.777344 59.5 "/>
</g>
</svg>
