<?xml version="1.0" encoding="UTF-8"?>
<svg xmlns="http://www.w3.org/2000/svg" xmlns:xlink="http://www.w3.org/1999/xlink" width="375pt" height="374.999991pt" viewBox="0 0 375 374.999991" version="1.2">
<defs>
<clipPath id="clip1">
  <path d="M 244 158 L 333 158 L 333 313.324219 L 244 313.324219 Z M 244 158 "/>
</clipPath>
<clipPath id="clip2">
  <path d="M 73 61.324219 L 161 61.324219 L 161 118 L 73 118 Z M 73 61.324219 "/>
</clipPath>
<clipPath id="clip3">
  <path d="M 156 293 L 246 293 L 246 313.324219 L 156 313.324219 Z M 156 293 "/>
</clipPath>
<clipPath id="clip4">
  <path d="M 42.054688 124 L 152 124 L 152 313.324219 L 42.054688 313.324219 Z M 42.054688 124 "/>
</clipPath>
</defs>
<g id="surface1">
<path style=" stroke:none;fill-rule:nonzero;fill:rgb(100%,8.628845%,8.628845%);fill-opacity:1;" d="M 205.992188 187.945312 C 197.179688 187.945312 189.308594 191.929688 184.058594 198.175781 C 189.03125 194.015625 195.433594 191.503906 202.425781 191.503906 C 218.230469 191.503906 231.042969 204.292969 231.042969 220.070312 C 231.042969 227.050781 228.523438 233.441406 224.359375 238.40625 C 230.617188 233.164062 234.605469 225.304688 234.605469 216.515625 C 234.605469 200.738281 221.792969 187.945312 205.992188 187.945312 "/>
<g clip-path="url(#clip1)" clip-rule="nonzero">
<path style=" stroke:none;fill-rule:nonzero;fill:rgb(100%,8.628845%,8.628845%);fill-opacity:1;" d="M 319.726562 304.707031 C 319.726562 307.082031 306.019531 309.011719 288.675781 309.011719 C 271.332031 309.011719 257.273438 307.082031 257.273438 304.707031 L 247.484375 167.226562 C 254.132812 169.429688 269.980469 170.984375 288.5 170.984375 C 307.015625 170.984375 322.867188 169.429688 329.515625 167.226562 Z M 288.5 158.839844 C 263.992188 158.839844 244.132812 161.558594 244.132812 164.914062 L 255.222656 308.761719 C 255.222656 311.296875 270.203125 313.355469 288.6875 313.355469 C 307.167969 313.355469 321.773438 311.296875 321.773438 308.761719 L 332.867188 164.914062 C 332.867188 161.558594 313.003906 158.839844 288.5 158.839844 "/>
</g>
<path style=" stroke:none;fill-rule:nonzero;fill:rgb(100%,8.628845%,8.628845%);fill-opacity:1;" d="M 258.828125 302.929688 C 264.882812 305.226562 276.160156 306.78125 289.109375 306.78125 C 302.058594 306.78125 313.335938 305.226562 319.390625 302.929688 C 313.335938 300.625 302.058594 299.074219 289.109375 299.074219 C 276.160156 299.074219 264.882812 300.625 258.828125 302.929688 "/>
<path style=" stroke:none;fill-rule:nonzero;fill:rgb(100%,8.628845%,8.628845%);fill-opacity:1;" d="M 263.558594 246.367188 L 270.378906 247.183594 L 268.867188 227.636719 L 262.03125 226.789062 L 263.558594 246.367188 "/>
<path style=" stroke:none;fill-rule:nonzero;fill:rgb(100%,8.628845%,8.628845%);fill-opacity:1;" d="M 268.308594 220.433594 L 264.648438 173.074219 C 262.140625 172.933594 259.839844 172.699219 257.800781 172.382812 L 261.472656 219.585938 L 268.308594 220.433594 "/>
<g clip-path="url(#clip2)" clip-rule="nonzero">
<path style=" stroke:none;fill-rule:nonzero;fill:rgb(100%,8.628845%,8.628845%);fill-opacity:1;" d="M 116.265625 72.371094 L 116.265625 68.53125 L 160.355469 68.53125 L 160.355469 61.367188 L 83.589844 61.367188 C 80.546875 61.367188 78.078125 63.832031 78.078125 66.867188 C 78.078125 69.90625 80.546875 72.371094 83.589844 72.371094 L 89.394531 72.371094 L 89.394531 98.449219 L 86.335938 98.449219 C 79.011719 98.449219 73.074219 104.378906 73.074219 111.691406 L 73.074219 117.765625 L 121.128906 117.765625 L 121.128906 111.691406 C 121.128906 104.378906 115.191406 98.449219 107.867188 98.449219 L 104.804688 98.449219 L 104.804688 72.371094 L 116.265625 72.371094 "/>
</g>
<path style=" stroke:none;fill-rule:nonzero;fill:rgb(100%,8.628845%,8.628845%);fill-opacity:1;" d="M 156.640625 167.203125 C 169.585938 152.910156 188.015625 143.664062 208.664062 142.929688 C 207.773438 142.898438 206.886719 142.863281 205.992188 142.863281 C 187.011719 142.863281 169.714844 150.019531 156.640625 161.769531 L 156.640625 167.203125 "/>
<path style=" stroke:none;fill-rule:nonzero;fill:rgb(100%,8.628845%,8.628845%);fill-opacity:1;" d="M 156.640625 265.820312 L 156.640625 271.253906 C 169.714844 283.003906 187.011719 290.160156 205.992188 290.160156 C 206.886719 290.160156 207.773438 290.128906 208.664062 290.097656 C 188.015625 289.359375 169.585938 280.113281 156.640625 265.820312 "/>
<path style=" stroke:none;fill-rule:nonzero;fill:rgb(100%,8.628845%,8.628845%);fill-opacity:1;" d="M 205.992188 119.675781 C 186.296875 119.675781 167.988281 125.546875 152.6875 135.613281 C 153.566406 137.183594 154.289062 138.84375 154.886719 140.5625 C 169.484375 130.757812 187.066406 125.027344 205.992188 125.027344 C 231.730469 125.027344 254.976562 135.636719 271.625 152.691406 C 273.832031 152.585938 276.203125 152.507812 278.707031 152.445312 C 260.929688 132.355469 234.949219 119.675781 205.992188 119.675781 "/>
<g clip-path="url(#clip3)" clip-rule="nonzero">
<path style=" stroke:none;fill-rule:nonzero;fill:rgb(100%,8.628845%,8.628845%);fill-opacity:1;" d="M 240.164062 301.398438 C 229.601562 305.644531 218.074219 307.996094 205.992188 307.996094 C 187.8125 307.996094 170.886719 302.691406 156.640625 293.582031 L 156.640625 299.421875 C 156.640625 299.574219 156.621094 299.71875 156.617188 299.867188 C 171.082031 308.425781 187.957031 313.355469 205.992188 313.355469 C 220.125 313.355469 233.535156 310.3125 245.648438 304.886719 L 240.488281 302.929688 C 240.488281 302.929688 242.785156 300.347656 240.164062 301.398438 "/>
</g>
<g clip-path="url(#clip4)" clip-rule="nonzero">
<path style=" stroke:none;fill-rule:nonzero;fill:rgb(100%,8.628845%,8.628845%);fill-opacity:1;" d="M 128.53125 249.894531 L 65.675781 249.894531 L 65.675781 183.871094 L 128.53125 183.871094 Z M 125.183594 124.0625 L 69.019531 124.0625 C 54.222656 124.0625 42.21875 136.039062 42.21875 150.8125 L 42.21875 299.421875 C 42.21875 307.117188 48.472656 313.355469 56.175781 313.355469 L 138.027344 313.355469 C 145.734375 313.355469 151.980469 307.117188 151.980469 299.421875 L 151.980469 150.8125 C 151.980469 136.039062 139.984375 124.0625 125.183594 124.0625 "/>
</g>
<path style=" stroke:none;fill-rule:nonzero;fill:rgb(100%,8.628845%,8.628845%);fill-opacity:1;" d="M 245.648438 91.625 L 247.625 105.78125 L 261.808594 107.757812 L 247.625 109.734375 L 245.648438 123.894531 L 243.664062 109.734375 L 229.484375 107.757812 L 243.664062 105.78125 L 245.648438 91.625 "/>
<path style=" stroke:none;fill-rule:nonzero;fill:rgb(100%,8.628845%,8.628845%);fill-opacity:1;" d="M 304.308594 124.0625 L 302.085938 138.179688 L 315.082031 144.179688 L 300.941406 141.96875 L 294.929688 154.941406 L 297.144531 140.820312 L 284.148438 134.816406 L 298.296875 137.035156 L 304.308594 124.0625 "/>
<path style=" stroke:none;fill-rule:nonzero;fill:rgb(100%,8.628845%,8.628845%);fill-opacity:1;" d="M 298.996094 89.675781 L 298.011719 95.9375 L 303.777344 98.597656 L 297.503906 97.617188 L 294.839844 103.367188 L 295.820312 97.109375 L 290.058594 94.449219 L 296.332031 95.429688 L 298.996094 89.675781 "/>
<path style=" stroke:none;fill-rule:nonzero;fill:rgb(100%,8.628845%,8.628845%);fill-opacity:1;" d="M 298.996094 219.945312 L 298.011719 226.203125 L 303.777344 228.863281 L 297.503906 227.882812 L 294.839844 233.636719 L 295.820312 227.375 L 290.058594 224.714844 L 296.332031 225.695312 L 298.996094 219.945312 "/>
<path style=" stroke:none;fill-rule:nonzero;fill:rgb(100%,8.628845%,8.628845%);fill-opacity:1;" d="M 70.675781 245.167969 L 123.53125 245.167969 L 123.53125 189.796875 L 70.675781 189.796875 Z M 124.902344 246.535156 L 69.300781 246.535156 L 69.300781 188.425781 L 124.902344 188.425781 L 124.902344 246.535156 "/>
</g>
</svg>
