<?xml version="1.0" encoding="UTF-8"?>
<svg xmlns="http://www.w3.org/2000/svg" xmlns:xlink="http://www.w3.org/1999/xlink" width="375pt" height="374.999991pt" viewBox="0 0 375 374.999991" version="1.2">
<defs>
<clipPath id="clip1">
  <path d="M 143.664062 195.464844 L 220.164062 195.464844 L 220.164062 274 L 143.664062 274 Z M 143.664062 195.464844 "/>
</clipPath>
<clipPath id="clip2">
  <path d="M 160 322 L 204 322 L 204 337.214844 L 160 337.214844 Z M 160 322 "/>
</clipPath>
<clipPath id="clip3">
  <path d="M 246.1875 84.75 L 337.6875 84.75 L 337.6875 234.75 L 246.1875 234.75 Z M 246.1875 84.75 "/>
</clipPath>
<clipPath id="clip4">
  <path d="M 37.5 37.5 L 167 37.5 L 167 187.5 L 37.5 187.5 Z M 37.5 37.5 "/>
</clipPath>
</defs>
<g id="surface1">
<g clip-path="url(#clip1)" clip-rule="nonzero">
<path style=" stroke:none;fill-rule:nonzero;fill:rgb(100%,8.628845%,8.628845%);fill-opacity:1;" d="M 205.882812 196.863281 L 205.882812 195.464844 L 157.191406 195.464844 L 156.78125 196.140625 C 156.757812 196.183594 153.5 201.554688 150.234375 209.464844 C 146.972656 217.378906 143.683594 227.828125 143.679688 238.117188 C 143.679688 242.183594 144.195312 246.226562 145.453125 250.066406 C 146.398438 252.949219 147.765625 255.714844 149.632812 258.273438 C 152.433594 262.109375 156.371094 265.460938 161.652344 268.054688 C 166.9375 270.644531 173.558594 272.488281 181.785156 273.371094 L 181.9375 273.390625 L 182.085938 273.371094 C 189.402344 272.589844 195.445312 271.046875 200.410156 268.890625 C 204.128906 267.273438 207.246094 265.3125 209.8125 263.078125 C 213.667969 259.726562 216.28125 255.757812 217.910156 251.5 C 219.539062 247.238281 220.191406 242.691406 220.191406 238.117188 C 220.1875 227.828125 216.898438 217.378906 213.636719 209.464844 C 210.371094 201.554688 207.113281 196.183594 207.089844 196.140625 L 206.679688 195.464844 L 205.882812 195.464844 L 205.882812 196.863281 L 204.679688 197.585938 L 204.683594 197.597656 C 204.855469 197.882812 208.046875 203.21875 211.179688 210.890625 C 214.316406 218.558594 217.378906 228.574219 217.375 238.117188 C 217.375 241.949219 216.886719 245.695312 215.738281 249.199219 C 214.875 251.828125 213.644531 254.324219 211.960938 256.628906 C 209.433594 260.082031 205.890625 263.128906 200.972656 265.542969 C 196.054688 267.960938 189.757812 269.734375 181.785156 270.589844 L 181.9375 271.980469 L 182.085938 270.589844 C 175 269.828125 169.238281 268.34375 164.59375 266.324219 C 161.105469 264.8125 158.25 263 155.914062 260.972656 C 152.417969 257.921875 150.082031 254.375 148.597656 250.503906 C 147.113281 246.632812 146.496094 242.425781 146.496094 238.117188 C 146.488281 228.421875 149.652344 218.242188 152.839844 210.527344 C 154.433594 206.667969 156.027344 203.421875 157.222656 201.144531 C 157.816406 200.007812 158.316406 199.113281 158.660156 198.503906 C 158.832031 198.203125 158.96875 197.96875 159.058594 197.816406 C 159.105469 197.734375 159.136719 197.679688 159.160156 197.640625 L 159.1875 197.597656 L 159.195312 197.585938 L 157.988281 196.863281 L 157.988281 198.265625 L 205.882812 198.265625 L 205.882812 196.863281 L 204.679688 197.585938 L 205.882812 196.863281 "/>
</g>
<path style=" stroke:none;fill-rule:nonzero;fill:rgb(100%,8.628845%,8.628845%);fill-opacity:1;" d="M 150.902344 232.316406 C 149.101562 247.507812 154.246094 263.40625 181.9375 266.375 C 209.625 263.40625 214.769531 247.507812 212.96875 232.316406 L 150.902344 232.316406 "/>
<path style=" stroke:none;fill-rule:nonzero;fill:rgb(100%,8.628845%,8.628845%);fill-opacity:1;" d="M 185.691406 329.828125 L 178.179688 329.828125 L 178.179688 271.980469 L 185.691406 271.980469 L 185.691406 329.828125 "/>
<g clip-path="url(#clip2)" clip-rule="nonzero">
<path style=" stroke:none;fill-rule:nonzero;fill:rgb(100%,8.628845%,8.628845%);fill-opacity:1;" d="M 202.207031 335.015625 C 185.371094 331.875 185.039062 325.5 185.039062 325.5 L 181.9375 322.445312 L 178.832031 325.5 C 178.832031 325.5 178.5 331.875 161.664062 335.015625 C 161.664062 335.015625 158.691406 336.261719 161.664062 337.207031 L 202.207031 337.207031 C 205.179688 336.261719 202.207031 335.015625 202.207031 335.015625 "/>
</g>
<g clip-path="url(#clip3)" clip-rule="nonzero">
<path style=" stroke:none;fill-rule:nonzero;fill:rgb(100%,8.628845%,8.628845%);fill-opacity:1;" d="M 330.789062 84.773438 L 301.382812 88.035156 C 300.015625 88.175781 298.894531 89.15625 298.574219 90.480469 L 290.265625 123.878906 L 259.261719 123.878906 C 252.074219 123.878906 246.191406 129.75 246.191406 136.921875 L 246.191406 140.183594 C 246.191406 141.980469 247.660156 143.445312 249.460938 143.445312 L 253.058594 143.445312 L 262.542969 231.84375 C 262.734375 233.488281 264.125 234.75 265.796875 234.75 L 318.078125 234.75 C 319.75 234.75 321.140625 233.488281 321.332031 231.84375 L 330.816406 143.445312 L 334.414062 143.445312 C 336.214844 143.445312 337.683594 141.980469 337.683594 140.183594 L 337.683594 136.921875 C 337.683594 129.75 331.800781 123.878906 324.613281 123.878906 L 297.003906 123.878906 L 304.355469 94.25 L 331.503906 91.246094 Z M 259.261719 130.402344 L 324.613281 130.402344 C 328.261719 130.402344 331.148438 133.28125 331.148438 136.921875 L 252.726562 136.921875 C 252.726562 133.28125 255.613281 130.402344 259.261719 130.402344 Z M 259.632812 143.445312 L 324.242188 143.445312 L 315.140625 228.226562 L 268.734375 228.226562 Z M 259.632812 143.445312 "/>
</g>
<g clip-path="url(#clip4)" clip-rule="nonzero">
<path style=" stroke:none;fill-rule:nonzero;fill:rgb(100%,8.628845%,8.628845%);fill-opacity:1;" d="M 57.425781 112.003906 L 57.425781 171.566406 C 57.425781 180.289062 64.542969 187.386719 73.289062 187.386719 L 99.613281 187.386719 C 104.328125 187.386719 108.765625 185.269531 111.761719 181.703125 C 116.300781 183.4375 121.167969 184.394531 126.203125 184.394531 C 126.210938 184.394531 126.210938 184.394531 126.210938 184.394531 C 135.261719 184.394531 143.835938 181.441406 150.976562 175.855469 C 166.535156 163.691406 170.902344 141.605469 161.125 124.464844 C 160.890625 124.054688 160.492188 123.757812 160.035156 123.648438 C 159.582031 123.542969 159.089844 123.628906 158.695312 123.894531 L 115.476562 152.816406 L 115.476562 90.425781 C 115.476562 89.492188 114.707031 88.726562 113.773438 88.726562 L 92.507812 88.726562 L 98.550781 57.65625 L 126.824219 41.117188 C 127.632812 40.644531 127.90625 39.605469 127.429688 38.796875 C 126.949219 37.984375 125.90625 37.714844 125.097656 38.1875 L 96.167969 55.113281 C 95.746094 55.363281 95.449219 55.777344 95.359375 56.253906 L 89.039062 88.730469 L 80.761719 88.730469 C 79.886719 77.585938 70.527344 68.769531 59.125 68.769531 C 47.148438 68.769531 37.40625 78.484375 37.40625 90.429688 C 37.40625 101.800781 46.246094 111.132812 57.425781 112.003906 Z M 159.042969 127.761719 C 166.839844 143.195312 162.644531 162.433594 148.886719 173.183594 C 142.339844 178.292969 134.503906 181 126.21875 181 L 126.210938 181 C 115.421875 181 105.386719 176.40625 98.386719 168.339844 Z M 80.671875 140.679688 C 80.78125 140.699219 80.890625 140.710938 81.003906 140.710938 C 81.800781 140.710938 82.511719 140.148438 82.671875 139.339844 L 91.855469 92.128906 L 112.078125 92.128906 L 112.078125 155.101562 L 94.9375 166.570312 C 94.542969 166.832031 94.277344 167.246094 94.199219 167.710938 C 94.128906 168.179688 94.25 168.648438 94.542969 169.027344 C 98.335938 173.851562 103.082031 177.652344 108.40625 180.273438 C 106.082031 182.589844 102.960938 183.988281 99.621094 183.988281 L 73.296875 183.988281 C 66.425781 183.988281 60.839844 178.410156 60.839844 171.5625 L 60.839844 92.125 L 88.390625 92.125 L 79.332031 138.691406 C 79.148438 139.609375 79.75 140.503906 80.671875 140.679688 Z M 59.128906 72.160156 C 68.648438 72.160156 76.398438 79.464844 77.269531 88.726562 L 59.128906 88.726562 C 58.1875 88.726562 57.425781 89.492188 57.425781 90.425781 L 57.425781 108.515625 C 48.136719 107.648438 40.8125 99.914062 40.8125 90.425781 C 40.8125 80.355469 49.03125 72.160156 59.128906 72.160156 Z M 59.128906 72.160156 "/>
</g>
<path style=" stroke:none;fill-rule:nonzero;fill:rgb(100%,8.628845%,8.628845%);fill-opacity:1;" d="M 59.128906 87.222656 C 60.070312 87.222656 60.832031 86.460938 60.832031 85.523438 L 60.832031 76.703125 C 60.832031 75.769531 60.070312 75.003906 59.128906 75.003906 C 58.1875 75.003906 57.425781 75.769531 57.425781 76.703125 L 57.425781 85.523438 C 57.425781 86.460938 58.1875 87.222656 59.128906 87.222656 Z M 59.128906 87.222656 "/>
<path style=" stroke:none;fill-rule:nonzero;fill:rgb(100%,8.628845%,8.628845%);fill-opacity:1;" d="M 54.449219 88.160156 C 54.785156 88.496094 55.21875 88.65625 55.65625 88.65625 C 56.089844 88.65625 56.527344 88.488281 56.859375 88.160156 C 57.523438 87.5 57.523438 86.421875 56.859375 85.757812 L 50.605469 79.523438 C 49.941406 78.867188 48.859375 78.867188 48.195312 79.523438 C 47.53125 80.1875 47.53125 81.265625 48.195312 81.925781 Z M 54.449219 88.160156 "/>
<path style=" stroke:none;fill-rule:nonzero;fill:rgb(100%,8.628845%,8.628845%);fill-opacity:1;" d="M 55.914062 90.425781 C 55.914062 89.492188 55.152344 88.726562 54.210938 88.726562 L 45.367188 88.726562 C 44.425781 88.726562 43.664062 89.492188 43.664062 90.425781 C 43.664062 91.363281 44.425781 92.125 45.367188 92.125 L 54.210938 92.125 C 55.152344 92.125 55.914062 91.371094 55.914062 90.425781 Z M 55.914062 90.425781 "/>
<path style=" stroke:none;fill-rule:nonzero;fill:rgb(100%,8.628845%,8.628845%);fill-opacity:1;" d="M 54.449219 92.695312 L 48.195312 98.933594 C 47.53125 99.589844 47.53125 100.671875 48.195312 101.332031 C 48.527344 101.667969 48.964844 101.828125 49.398438 101.828125 C 49.835938 101.828125 50.269531 101.664062 50.605469 101.332031 L 56.859375 95.09375 C 57.523438 94.4375 57.523438 93.355469 56.859375 92.695312 C 56.195312 92.035156 55.117188 92.035156 54.449219 92.695312 Z M 54.449219 92.695312 "/>
<path style=" stroke:none;fill-rule:nonzero;fill:rgb(100%,8.628845%,8.628845%);fill-opacity:1;" d="M 62.609375 88.660156 C 63.046875 88.660156 63.480469 88.492188 63.816406 88.164062 L 70.066406 81.929688 C 70.730469 81.269531 70.730469 80.191406 70.066406 79.527344 C 69.402344 78.867188 68.324219 78.867188 67.660156 79.527344 L 61.40625 85.761719 C 60.742188 86.425781 60.742188 87.503906 61.40625 88.164062 C 61.738281 88.492188 62.171875 88.660156 62.609375 88.660156 Z M 62.609375 88.660156 "/>
<path style=" stroke:none;fill-rule:nonzero;fill:rgb(100%,8.628845%,8.628845%);fill-opacity:1;" d="M 140.03125 167.929688 C 140.367188 168.417969 140.90625 168.679688 141.449219 168.679688 C 141.777344 168.679688 142.105469 168.59375 142.394531 168.394531 C 143.171875 167.871094 143.382812 166.816406 142.859375 166.042969 L 135.796875 155.535156 C 135.265625 154.75 134.199219 154.550781 133.4375 155.070312 C 132.65625 155.589844 132.445312 156.640625 132.96875 157.417969 Z M 140.03125 167.929688 "/>
<path style=" stroke:none;fill-rule:nonzero;fill:rgb(100%,8.628845%,8.628845%);fill-opacity:1;" d="M 140.292969 148.792969 L 152.734375 151.238281 C 152.839844 151.257812 152.953125 151.273438 153.070312 151.273438 C 153.859375 151.273438 154.570312 150.707031 154.738281 149.902344 C 154.917969 148.984375 154.320312 148.089844 153.394531 147.910156 L 140.941406 145.460938 C 140.035156 145.28125 139.132812 145.878906 138.945312 146.804688 C 138.757812 147.726562 139.367188 148.613281 140.292969 148.792969 Z M 140.292969 148.792969 "/>
<path style=" stroke:none;fill-rule:nonzero;fill:rgb(100%,8.628845%,8.628845%);fill-opacity:1;" d="M 120.5625 172.765625 C 120.667969 172.785156 120.78125 172.800781 120.898438 172.800781 C 121.6875 172.800781 122.398438 172.238281 122.558594 171.429688 L 125.015625 159.019531 C 125.195312 158.097656 124.59375 157.207031 123.667969 157.027344 C 122.757812 156.847656 121.855469 157.441406 121.671875 158.367188 L 119.21875 170.78125 C 119.035156 171.695312 119.640625 172.589844 120.5625 172.765625 Z M 120.5625 172.765625 "/>
</g>
</svg>
