<?xml version="1.0" encoding="UTF-8"?>
<svg xmlns="http://www.w3.org/2000/svg" xmlns:xlink="http://www.w3.org/1999/xlink" width="375pt" height="374.999991pt" viewBox="0 0 375 374.999991" version="1.2">
<g id="surface1">
<path style=" stroke:none;fill-rule:nonzero;fill:rgb(100%,8.628845%,8.628845%);fill-opacity:1;" d="M 248.539062 91.949219 C 248.308594 92.832031 248.109375 93.621094 247.929688 94.308594 L 248.003906 94.339844 C 247.351562 94.078125 246.691406 93.84375 246.027344 93.621094 C 246.859375 92.914062 247.695312 92.363281 248.539062 91.949219 Z M 300.679688 3.5 C 307.160156 3.554688 312.9375 7.058594 315.757812 12.652344 C 319.449219 19.960938 317.628906 29.550781 310.777344 38.953125 C 295.957031 59.28125 274.554688 81.976562 263.117188 93.703125 C 262.082031 92.214844 260.660156 90.914062 258.828125 89.820312 C 256.898438 88.667969 254.96875 88.011719 253.078125 87.839844 C 257.3125 72.433594 266.320312 42.882812 278.679688 19.335938 C 283.996094 9.199219 292.015625 3.429688 300.679688 3.5 Z M 261.4375 103.03125 C 260.949219 102.554688 260.4375 102.089844 259.925781 101.632812 L 259.933594 101.640625 C 260.464844 101.105469 261.082031 100.488281 261.765625 99.800781 C 261.8125 100.804688 261.699219 101.878906 261.4375 103.03125 Z M 249.578125 94.996094 L 249.402344 94.917969 Z M 241.613281 119.5625 C 243.164062 120.625 244.445312 121.929688 245.445312 123.402344 C 244.941406 123.671875 244.519531 123.824219 244.230469 123.835938 C 243.847656 123.816406 243.707031 123.738281 243.703125 123.742188 C 243.570312 123.476562 243.746094 122.679688 244.128906 121.742188 C 243.390625 120.929688 242.546875 120.207031 241.613281 119.5625 Z M 239.269531 118.25 C 239.457031 118.332031 239.640625 118.417969 239.820312 118.507812 C 239.640625 118.417969 239.457031 118.332031 239.269531 118.25 Z M 232.839844 120.382812 C 233.425781 121.464844 234.070312 122.109375 234.679688 122.480469 C 235.332031 122.863281 235.953125 122.953125 236.457031 122.914062 C 238.488281 122.78125 239.941406 120.59375 240.738281 118.992188 L 240.867188 119.066406 C 241.089844 119.199219 241.289062 119.347656 241.5 119.488281 C 240.6875 121.101562 239.847656 123.472656 240.75 125.246094 C 241.160156 126.054688 242.066406 127.039062 244.054688 127.140625 C 244.804688 127.179688 245.804688 126.855469 246.945312 126.253906 C 248.539062 130.320312 248.316406 135.046875 245.894531 139.085938 C 241.746094 145.996094 232.777344 148.242188 225.855469 144.101562 C 218.933594 139.960938 216.679688 131 220.828125 124.082031 C 223.371094 119.84375 227.722656 117.375 232.300781 117.042969 C 232.273438 118.484375 232.441406 119.644531 232.839844 120.382812 Z M 236.296875 119.574219 C 236.191406 119.480469 236 119.269531 235.753906 118.804688 C 235.59375 118.496094 235.527344 117.917969 235.546875 117.15625 C 236.714844 117.335938 237.875 117.664062 239 118.136719 C 238.566406 117.957031 238.132812 117.796875 237.6875 117.660156 C 237.214844 118.566406 236.65625 119.351562 236.296875 119.574219 Z M 258.722656 100.613281 L 258.648438 100.550781 Z M 257.363281 99.550781 C 256.277344 98.734375 255.140625 97.96875 253.945312 97.261719 C 252.980469 96.679688 251.996094 96.152344 251 95.664062 C 251.296875 94.496094 251.695312 92.949219 252.1875 91.105469 C 253.789062 91.132812 255.429688 91.644531 257.125 92.65625 C 258.761719 93.636719 259.960938 94.792969 260.730469 96.136719 C 259.386719 97.503906 258.242188 98.652344 257.351562 99.542969 Z M 273.414062 132.386719 C 273.425781 131.808594 273.417969 131.234375 273.40625 130.660156 C 273.402344 130.515625 273.398438 130.375 273.394531 130.226562 C 273.371094 129.65625 273.34375 129.089844 273.304688 128.515625 L 273.300781 128.507812 C 273.257812 127.933594 273.195312 127.359375 273.125 126.785156 C 273.105469 126.652344 273.089844 126.519531 273.070312 126.386719 C 272.917969 125.238281 272.722656 124.09375 272.472656 122.960938 C 272.445312 122.839844 272.417969 122.722656 272.394531 122.605469 C 272.125 121.464844 271.816406 120.335938 271.449219 119.222656 C 271.414062 119.117188 271.382812 119.011719 271.347656 118.898438 C 269.773438 114.191406 267.324219 109.757812 264.066406 105.871094 C 264.144531 105.628906 264.230469 105.390625 264.304688 105.148438 C 265.234375 102.085938 265.335938 99.316406 264.632812 96.886719 C 275.902344 85.371094 298.140625 61.90625 313.453125 40.902344 C 321.066406 30.460938 322.984375 19.621094 318.71875 11.164062 C 315.335938 4.460938 308.433594 0.25 300.707031 0.1875 C 290.757812 0.109375 281.660156 6.527344 275.746094 17.800781 C 262.949219 42.179688 253.726562 72.871094 249.574219 88.078125 C 247.316406 88.609375 245.117188 89.867188 243.039062 91.859375 C 242.796875 92.085938 242.554688 92.328125 242.324219 92.578125 C 232.5625 90.34375 222.359375 91.875 213.757812 96.683594 L 166.128906 120.28125 C 166.128906 120.28125 162.394531 121.4375 158.75 127.523438 L 58.609375 294.503906 L 55.914062 299 C 52.265625 305.078125 54.242188 312.964844 60.335938 316.613281 L 151.675781 371.28125 C 157.769531 374.921875 165.664062 372.945312 169.316406 366.863281 L 272.148438 195.394531 C 275.464844 189.859375 275.082031 185.484375 275.082031 185.484375 L 273.414062 132.386719 "/>
</g>
</svg>
