<?xml version="1.0" encoding="UTF-8"?>
<svg xmlns="http://www.w3.org/2000/svg" xmlns:xlink="http://www.w3.org/1999/xlink" width="375pt" height="374.999991pt" viewBox="0 0 375 374.999991" version="1.2">
<defs>
<clipPath id="clip1">
  <path d="M 268 37.5 L 279 37.5 L 279 52 L 268 52 Z M 268 37.5 "/>
</clipPath>
<clipPath id="clip2">
  <path d="M 280 37.5 L 289 37.5 L 289 48 L 280 48 Z M 280 37.5 "/>
</clipPath>
<clipPath id="clip3">
  <path d="M 92 52 L 133 52 L 133 98 L 92 98 Z M 92 52 "/>
</clipPath>
<clipPath id="clip4">
  <path d="M 104.402344 42.433594 L 150.71875 65.511719 L 83.816406 199.765625 L 37.5 176.6875 Z M 104.402344 42.433594 "/>
</clipPath>
<clipPath id="clip5">
  <path d="M 104.402344 42.433594 L 150.71875 65.511719 L 83.816406 199.765625 L 37.5 176.6875 Z M 104.402344 42.433594 "/>
</clipPath>
<clipPath id="clip6">
  <path d="M 39 85 L 129 85 L 129 196 L 39 196 Z M 39 85 "/>
</clipPath>
<clipPath id="clip7">
  <path d="M 104.402344 42.433594 L 150.71875 65.511719 L 83.816406 199.765625 L 37.5 176.6875 Z M 104.402344 42.433594 "/>
</clipPath>
<clipPath id="clip8">
  <path d="M 104.402344 42.433594 L 150.71875 65.511719 L 83.816406 199.765625 L 37.5 176.6875 Z M 104.402344 42.433594 "/>
</clipPath>
<clipPath id="clip9">
  <path d="M 133.851562 208.007812 L 241.101562 208.007812 L 241.101562 319 L 133.851562 319 Z M 133.851562 208.007812 "/>
</clipPath>
</defs>
<g id="surface1">
<path style=" stroke:none;fill-rule:nonzero;fill:rgb(100%,8.628845%,8.628845%);fill-opacity:1;" d="M 297.78125 53.378906 C 297.78125 53.378906 281.136719 44.441406 273.015625 56.628906 C 264.898438 68.816406 268.554688 63.53125 275.046875 74.097656 C 275.046875 74.097656 279.511719 82.21875 276.265625 87.5 C 276.265625 87.5 268.554688 98.875 274.234375 105.78125 C 274.234375 105.78125 292.90625 124.46875 305.898438 82.625 C 305.898438 82.625 314.015625 62.316406 297.78125 53.378906 Z M 297.78125 53.378906 "/>
<g clip-path="url(#clip1)" clip-rule="nonzero">
<path style=" stroke:none;fill-rule:nonzero;fill:rgb(100%,8.628845%,8.628845%);fill-opacity:1;" d="M 278.703125 44.542969 C 278.703125 44.976562 278.667969 45.40625 278.601562 45.832031 C 278.53125 46.257812 278.433594 46.667969 278.300781 47.070312 C 278.167969 47.46875 278.003906 47.851562 277.8125 48.210938 C 277.621094 48.570312 277.402344 48.90625 277.15625 49.210938 C 276.910156 49.515625 276.644531 49.792969 276.355469 50.03125 C 276.066406 50.273438 275.765625 50.476562 275.445312 50.640625 C 275.125 50.808594 274.792969 50.933594 274.453125 51.019531 C 274.113281 51.101562 273.769531 51.144531 273.425781 51.144531 C 273.078125 51.144531 272.734375 51.101562 272.394531 51.019531 C 272.054688 50.933594 271.726562 50.808594 271.40625 50.640625 C 271.085938 50.476562 270.78125 50.273438 270.492188 50.03125 C 270.203125 49.792969 269.9375 49.515625 269.691406 49.210938 C 269.449219 48.90625 269.230469 48.570312 269.035156 48.210938 C 268.84375 47.851562 268.679688 47.46875 268.546875 47.070312 C 268.414062 46.667969 268.316406 46.257812 268.25 45.832031 C 268.179688 45.40625 268.148438 44.976562 268.148438 44.542969 C 268.148438 44.109375 268.179688 43.679688 268.25 43.253906 C 268.316406 42.832031 268.414062 42.417969 268.546875 42.015625 C 268.679688 41.617188 268.84375 41.234375 269.035156 40.875 C 269.230469 40.515625 269.449219 40.183594 269.691406 39.875 C 269.9375 39.570312 270.203125 39.296875 270.492188 39.054688 C 270.78125 38.8125 271.085938 38.609375 271.40625 38.445312 C 271.726562 38.277344 272.054688 38.152344 272.394531 38.070312 C 272.734375 37.984375 273.078125 37.941406 273.425781 37.941406 C 273.769531 37.941406 274.113281 37.984375 274.453125 38.070312 C 274.792969 38.152344 275.125 38.277344 275.445312 38.445312 C 275.765625 38.609375 276.066406 38.8125 276.355469 39.054688 C 276.644531 39.296875 276.910156 39.570312 277.15625 39.875 C 277.402344 40.183594 277.621094 40.515625 277.8125 40.875 C 278.003906 41.234375 278.167969 41.617188 278.300781 42.015625 C 278.433594 42.417969 278.53125 42.832031 278.601562 43.253906 C 278.667969 43.679688 278.703125 44.109375 278.703125 44.542969 Z M 278.703125 44.542969 "/>
</g>
<g clip-path="url(#clip2)" clip-rule="nonzero">
<path style=" stroke:none;fill-rule:nonzero;fill:rgb(100%,8.628845%,8.628845%);fill-opacity:1;" d="M 288.847656 42.613281 C 288.847656 42.949219 288.824219 43.285156 288.769531 43.613281 C 288.71875 43.945312 288.640625 44.265625 288.535156 44.578125 C 288.433594 44.886719 288.308594 45.183594 288.15625 45.464844 C 288.007812 45.742188 287.839844 46.003906 287.648438 46.238281 C 287.457031 46.476562 287.25 46.691406 287.027344 46.878906 C 286.804688 47.066406 286.566406 47.222656 286.316406 47.351562 C 286.070312 47.480469 285.8125 47.578125 285.546875 47.644531 C 285.285156 47.710938 285.019531 47.742188 284.75 47.742188 C 284.480469 47.742188 284.214844 47.710938 283.949219 47.644531 C 283.683594 47.578125 283.429688 47.480469 283.179688 47.351562 C 282.929688 47.222656 282.695312 47.066406 282.472656 46.878906 C 282.246094 46.691406 282.039062 46.476562 281.847656 46.238281 C 281.660156 46.003906 281.488281 45.742188 281.339844 45.464844 C 281.191406 45.183594 281.0625 44.886719 280.960938 44.578125 C 280.859375 44.265625 280.78125 43.945312 280.726562 43.613281 C 280.675781 43.285156 280.648438 42.949219 280.648438 42.613281 C 280.648438 42.277344 280.675781 41.945312 280.726562 41.613281 C 280.78125 41.28125 280.859375 40.960938 280.960938 40.652344 C 281.0625 40.339844 281.191406 40.042969 281.339844 39.765625 C 281.488281 39.484375 281.660156 39.226562 281.847656 38.988281 C 282.039062 38.75 282.246094 38.535156 282.472656 38.347656 C 282.695312 38.164062 282.929688 38.003906 283.179688 37.875 C 283.429688 37.746094 283.683594 37.648438 283.949219 37.582031 C 284.214844 37.519531 284.480469 37.484375 284.75 37.484375 C 285.019531 37.484375 285.285156 37.519531 285.546875 37.582031 C 285.8125 37.648438 286.070312 37.746094 286.316406 37.875 C 286.566406 38.003906 286.804688 38.164062 287.027344 38.347656 C 287.25 38.535156 287.457031 38.75 287.648438 38.988281 C 287.839844 39.226562 288.007812 39.484375 288.15625 39.765625 C 288.308594 40.042969 288.433594 40.339844 288.535156 40.652344 C 288.640625 40.960938 288.71875 41.28125 288.769531 41.613281 C 288.824219 41.945312 288.847656 42.277344 288.847656 42.613281 Z M 288.847656 42.613281 "/>
</g>
<path style=" stroke:none;fill-rule:nonzero;fill:rgb(100%,8.628845%,8.628845%);fill-opacity:1;" d="M 292.558594 49.144531 C 292.316406 49.074219 292.082031 48.972656 291.859375 48.84375 C 291.640625 48.71875 291.433594 48.5625 291.242188 48.378906 C 291.050781 48.199219 290.878906 47.992188 290.726562 47.765625 C 290.574219 47.539062 290.441406 47.292969 290.332031 47.027344 C 290.222656 46.761719 290.136719 46.480469 290.074219 46.191406 C 290.011719 45.898438 289.976562 45.597656 289.964844 45.289062 C 289.953125 44.980469 289.964844 44.671875 290.003906 44.359375 C 290.042969 44.046875 290.105469 43.738281 290.195312 43.433594 C 290.285156 43.128906 290.394531 42.832031 290.527344 42.546875 C 290.664062 42.265625 290.816406 41.996094 290.992188 41.738281 C 291.164062 41.484375 291.355469 41.25 291.566406 41.039062 C 291.773438 40.824219 291.996094 40.632812 292.230469 40.46875 C 292.464844 40.304688 292.707031 40.164062 292.957031 40.054688 C 293.210938 39.945312 293.464844 39.863281 293.722656 39.8125 C 293.980469 39.761719 294.238281 39.742188 294.496094 39.75 C 294.75 39.761719 295 39.800781 295.246094 39.871094 C 295.488281 39.941406 295.71875 40.042969 295.941406 40.171875 C 296.164062 40.296875 296.371094 40.453125 296.5625 40.636719 C 296.75 40.816406 296.925781 41.023438 297.078125 41.25 C 297.230469 41.476562 297.363281 41.722656 297.472656 41.988281 C 297.582031 42.253906 297.667969 42.535156 297.730469 42.824219 C 297.792969 43.117188 297.828125 43.417969 297.839844 43.726562 C 297.851562 44.035156 297.835938 44.34375 297.796875 44.65625 C 297.757812 44.96875 297.695312 45.277344 297.609375 45.582031 C 297.519531 45.886719 297.410156 46.183594 297.273438 46.46875 C 297.140625 46.75 296.988281 47.019531 296.8125 47.277344 C 296.636719 47.53125 296.445312 47.765625 296.238281 47.976562 C 296.027344 48.191406 295.808594 48.382812 295.574219 48.546875 C 295.339844 48.710938 295.09375 48.851562 294.84375 48.960938 C 294.59375 49.070312 294.335938 49.152344 294.078125 49.203125 C 293.820312 49.253906 293.5625 49.273438 293.308594 49.265625 C 293.050781 49.253906 292.800781 49.214844 292.558594 49.144531 Z M 292.558594 49.144531 "/>
<path style=" stroke:none;fill-rule:nonzero;fill:rgb(100%,8.628845%,8.628845%);fill-opacity:1;" d="M 300.691406 52.710938 C 300.273438 52.589844 299.902344 52.371094 299.574219 52.0625 C 299.246094 51.75 298.988281 51.367188 298.800781 50.914062 C 298.613281 50.457031 298.507812 49.96875 298.488281 49.4375 C 298.46875 48.910156 298.535156 48.386719 298.683594 47.863281 C 298.835938 47.34375 299.0625 46.863281 299.359375 46.429688 C 299.660156 45.992188 300.007812 45.632812 300.410156 45.351562 C 300.8125 45.066406 301.234375 44.882812 301.675781 44.792969 C 302.121094 44.707031 302.550781 44.722656 302.96875 44.84375 C 303.382812 44.964844 303.757812 45.179688 304.082031 45.492188 C 304.410156 45.800781 304.667969 46.183594 304.855469 46.640625 C 305.042969 47.09375 305.148438 47.585938 305.167969 48.113281 C 305.1875 48.640625 305.125 49.167969 304.972656 49.6875 C 304.820312 50.210938 304.597656 50.6875 304.296875 51.125 C 304 51.558594 303.648438 51.917969 303.246094 52.203125 C 302.84375 52.484375 302.421875 52.671875 301.980469 52.757812 C 301.535156 52.847656 301.105469 52.832031 300.691406 52.710938 Z M 300.691406 52.710938 "/>
<path style=" stroke:none;fill-rule:nonzero;fill:rgb(100%,8.628845%,8.628845%);fill-opacity:1;" d="M 309.191406 50.371094 C 309.5625 50.503906 309.886719 50.722656 310.164062 51.027344 C 310.441406 51.328125 310.652344 51.691406 310.796875 52.113281 C 310.941406 52.539062 311.003906 52.992188 310.992188 53.46875 C 310.976562 53.949219 310.886719 54.421875 310.71875 54.886719 C 310.550781 55.351562 310.316406 55.773438 310.019531 56.148438 C 309.722656 56.527344 309.382812 56.832031 309 57.066406 C 308.621094 57.296875 308.226562 57.441406 307.816406 57.492188 C 307.410156 57.546875 307.023438 57.507812 306.652344 57.371094 C 306.28125 57.238281 305.957031 57.019531 305.675781 56.714844 C 305.398438 56.414062 305.1875 56.050781 305.046875 55.628906 C 304.902344 55.203125 304.835938 54.75 304.851562 54.269531 C 304.863281 53.792969 304.957031 53.320312 305.125 52.855469 C 305.292969 52.390625 305.523438 51.96875 305.824219 51.59375 C 306.121094 51.214844 306.460938 50.910156 306.839844 50.675781 C 307.222656 50.445312 307.617188 50.300781 308.023438 50.25 C 308.429688 50.195312 308.820312 50.234375 309.191406 50.371094 Z M 309.191406 50.371094 "/>
<path style=" stroke:none;fill-rule:nonzero;fill:rgb(100%,8.628845%,8.628845%);fill-opacity:1;" d="M 243.820312 88.113281 C 235.703125 75.925781 219.058594 84.863281 219.058594 84.863281 C 202.824219 93.800781 210.941406 114.109375 210.941406 114.109375 C 223.933594 155.953125 242.605469 137.265625 242.605469 137.265625 C 248.285156 130.359375 240.574219 118.984375 240.574219 118.984375 C 237.328125 113.703125 241.792969 105.578125 241.792969 105.578125 C 248.285156 95.015625 243.820312 88.113281 243.820312 88.113281 Z M 243.820312 88.113281 "/>
<path style=" stroke:none;fill-rule:nonzero;fill:rgb(100%,8.628845%,8.628845%);fill-opacity:1;" d="M 248.695312 76.027344 C 248.695312 76.457031 248.660156 76.886719 248.59375 77.3125 C 248.523438 77.738281 248.425781 78.152344 248.292969 78.550781 C 248.160156 78.953125 247.996094 79.332031 247.804688 79.691406 C 247.613281 80.054688 247.394531 80.386719 247.148438 80.691406 C 246.902344 81 246.636719 81.273438 246.347656 81.515625 C 246.0625 81.753906 245.757812 81.957031 245.4375 82.125 C 245.117188 82.289062 244.785156 82.414062 244.445312 82.5 C 244.105469 82.585938 243.761719 82.625 243.417969 82.625 C 243.070312 82.625 242.726562 82.585938 242.386719 82.5 C 242.046875 82.414062 241.71875 82.289062 241.398438 82.125 C 241.078125 81.957031 240.773438 81.753906 240.484375 81.515625 C 240.195312 81.273438 239.929688 81 239.683594 80.691406 C 239.441406 80.386719 239.222656 80.054688 239.027344 79.691406 C 238.835938 79.332031 238.675781 78.953125 238.542969 78.550781 C 238.410156 78.152344 238.308594 77.738281 238.242188 77.3125 C 238.171875 76.886719 238.140625 76.457031 238.140625 76.027344 C 238.140625 75.59375 238.171875 75.164062 238.242188 74.738281 C 238.308594 74.3125 238.410156 73.898438 238.542969 73.5 C 238.675781 73.097656 238.835938 72.71875 239.027344 72.359375 C 239.222656 71.996094 239.441406 71.664062 239.683594 71.359375 C 239.929688 71.050781 240.195312 70.777344 240.484375 70.535156 C 240.773438 70.296875 241.078125 70.09375 241.398438 69.925781 C 241.71875 69.761719 242.046875 69.636719 242.386719 69.550781 C 242.726562 69.464844 243.070312 69.425781 243.417969 69.425781 C 243.761719 69.425781 244.105469 69.464844 244.445312 69.550781 C 244.785156 69.636719 245.117188 69.761719 245.4375 69.925781 C 245.757812 70.09375 246.0625 70.296875 246.347656 70.535156 C 246.636719 70.777344 246.902344 71.050781 247.148438 71.359375 C 247.394531 71.664062 247.613281 71.996094 247.804688 72.359375 C 247.996094 72.71875 248.160156 73.097656 248.292969 73.5 C 248.425781 73.898438 248.523438 74.3125 248.59375 74.738281 C 248.660156 75.164062 248.695312 75.59375 248.695312 76.027344 Z M 248.695312 76.027344 "/>
<path style=" stroke:none;fill-rule:nonzero;fill:rgb(100%,8.628845%,8.628845%);fill-opacity:1;" d="M 236.191406 74.097656 C 236.191406 74.433594 236.167969 74.765625 236.113281 75.097656 C 236.0625 75.425781 235.984375 75.746094 235.878906 76.058594 C 235.777344 76.371094 235.652344 76.664062 235.5 76.945312 C 235.351562 77.226562 235.179688 77.484375 234.992188 77.722656 C 234.800781 77.960938 234.59375 78.171875 234.371094 78.359375 C 234.144531 78.546875 233.910156 78.707031 233.660156 78.835938 C 233.410156 78.964844 233.15625 79.058594 232.890625 79.125 C 232.628906 79.191406 232.359375 79.222656 232.089844 79.222656 C 231.820312 79.222656 231.554688 79.191406 231.289062 79.125 C 231.027344 79.058594 230.769531 78.964844 230.519531 78.835938 C 230.273438 78.707031 230.035156 78.546875 229.8125 78.359375 C 229.589844 78.171875 229.382812 77.960938 229.191406 77.722656 C 229 77.484375 228.832031 77.226562 228.679688 76.945312 C 228.53125 76.664062 228.40625 76.371094 228.300781 76.058594 C 228.199219 75.746094 228.121094 75.425781 228.066406 75.097656 C 228.015625 74.765625 227.988281 74.433594 227.988281 74.097656 C 227.988281 73.757812 228.015625 73.425781 228.066406 73.09375 C 228.121094 72.765625 228.199219 72.445312 228.300781 72.132812 C 228.40625 71.820312 228.53125 71.527344 228.679688 71.246094 C 228.832031 70.964844 229 70.707031 229.191406 70.46875 C 229.382812 70.230469 229.589844 70.019531 229.8125 69.832031 C 230.035156 69.644531 230.273438 69.488281 230.519531 69.359375 C 230.769531 69.230469 231.027344 69.132812 231.289062 69.066406 C 231.554688 69 231.820312 68.96875 232.089844 68.96875 C 232.359375 68.96875 232.628906 69 232.890625 69.066406 C 233.15625 69.132812 233.410156 69.230469 233.660156 69.359375 C 233.910156 69.488281 234.144531 69.644531 234.371094 69.832031 C 234.59375 70.019531 234.800781 70.230469 234.992188 70.46875 C 235.179688 70.707031 235.351562 70.964844 235.5 71.246094 C 235.652344 71.527344 235.777344 71.820312 235.878906 72.132812 C 235.984375 72.445312 236.0625 72.765625 236.113281 73.09375 C 236.167969 73.425781 236.191406 73.757812 236.191406 74.097656 Z M 236.191406 74.097656 "/>
<path style=" stroke:none;fill-rule:nonzero;fill:rgb(100%,8.628845%,8.628845%);fill-opacity:1;" d="M 224.273438 80.625 C 224.03125 80.695312 223.78125 80.734375 223.527344 80.746094 C 223.269531 80.753906 223.011719 80.734375 222.753906 80.683594 C 222.496094 80.632812 222.242188 80.550781 221.988281 80.441406 C 221.738281 80.332031 221.496094 80.191406 221.261719 80.027344 C 221.027344 79.863281 220.804688 79.671875 220.597656 79.457031 C 220.386719 79.242188 220.195312 79.011719 220.023438 78.753906 C 219.847656 78.5 219.695312 78.230469 219.558594 77.945312 C 219.425781 77.660156 219.316406 77.367188 219.226562 77.0625 C 219.140625 76.757812 219.074219 76.449219 219.035156 76.136719 C 218.996094 75.824219 218.984375 75.515625 218.996094 75.207031 C 219.007812 74.898438 219.042969 74.597656 219.105469 74.304688 C 219.167969 74.011719 219.253906 73.734375 219.363281 73.46875 C 219.472656 73.203125 219.605469 72.957031 219.757812 72.730469 C 219.910156 72.503906 220.085938 72.296875 220.273438 72.117188 C 220.464844 71.933594 220.671875 71.777344 220.894531 71.652344 C 221.117188 71.523438 221.347656 71.421875 221.589844 71.351562 C 221.835938 71.28125 222.085938 71.242188 222.339844 71.230469 C 222.597656 71.222656 222.851562 71.242188 223.113281 71.292969 C 223.371094 71.34375 223.625 71.425781 223.875 71.535156 C 224.128906 71.648438 224.371094 71.785156 224.605469 71.949219 C 224.839844 72.117188 225.0625 72.304688 225.269531 72.519531 C 225.476562 72.734375 225.667969 72.96875 225.84375 73.222656 C 226.019531 73.476562 226.171875 73.746094 226.308594 74.03125 C 226.441406 74.316406 226.550781 74.609375 226.640625 74.914062 C 226.726562 75.21875 226.792969 75.527344 226.832031 75.839844 C 226.871094 76.152344 226.882812 76.460938 226.871094 76.769531 C 226.859375 77.078125 226.824219 77.378906 226.761719 77.671875 C 226.699219 77.964844 226.613281 78.242188 226.503906 78.507812 C 226.394531 78.773438 226.261719 79.019531 226.109375 79.246094 C 225.953125 79.476562 225.78125 79.679688 225.589844 79.859375 C 225.402344 80.042969 225.195312 80.199219 224.972656 80.328125 C 224.75 80.457031 224.519531 80.554688 224.273438 80.625 Z M 224.273438 80.625 "/>
<path style=" stroke:none;fill-rule:nonzero;fill:rgb(100%,8.628845%,8.628845%);fill-opacity:1;" d="M 216.160156 84.1875 C 215.742188 84.308594 215.3125 84.328125 214.867188 84.238281 C 214.425781 84.152344 214.003906 83.964844 213.601562 83.679688 C 213.199219 83.398438 212.847656 83.039062 212.550781 82.601562 C 212.25 82.167969 212.027344 81.6875 211.875 81.167969 C 211.722656 80.644531 211.660156 80.121094 211.679688 79.59375 C 211.699219 79.066406 211.804688 78.574219 211.992188 78.121094 C 212.179688 77.664062 212.4375 77.28125 212.765625 76.972656 C 213.09375 76.660156 213.464844 76.445312 213.882812 76.324219 C 214.296875 76.203125 214.730469 76.183594 215.171875 76.273438 C 215.613281 76.359375 216.039062 76.546875 216.4375 76.828125 C 216.839844 77.113281 217.191406 77.472656 217.488281 77.910156 C 217.789062 78.34375 218.015625 78.824219 218.164062 79.34375 C 218.316406 79.867188 218.382812 80.390625 218.359375 80.917969 C 218.339844 81.445312 218.238281 81.9375 218.050781 82.390625 C 217.859375 82.847656 217.601562 83.230469 217.273438 83.539062 C 216.949219 83.851562 216.574219 84.066406 216.160156 84.1875 Z M 216.160156 84.1875 "/>
<path style=" stroke:none;fill-rule:nonzero;fill:rgb(100%,8.628845%,8.628845%);fill-opacity:1;" d="M 210.179688 88.847656 C 209.808594 88.984375 209.417969 89.023438 209.011719 88.972656 C 208.601562 88.917969 208.207031 88.777344 207.828125 88.542969 C 207.445312 88.308594 207.105469 88.003906 206.808594 87.628906 C 206.511719 87.25 206.277344 86.828125 206.109375 86.363281 C 205.941406 85.902344 205.847656 85.429688 205.835938 84.949219 C 205.824219 84.46875 205.886719 84.015625 206.03125 83.59375 C 206.175781 83.167969 206.386719 82.804688 206.664062 82.503906 C 206.941406 82.199219 207.265625 81.980469 207.640625 81.847656 C 208.011719 81.710938 208.398438 81.671875 208.808594 81.722656 C 209.214844 81.777344 209.609375 81.921875 209.992188 82.152344 C 210.371094 82.386719 210.710938 82.691406 211.007812 83.070312 C 211.308594 83.445312 211.539062 83.867188 211.707031 84.332031 C 211.875 84.796875 211.96875 85.265625 211.980469 85.746094 C 211.996094 86.226562 211.929688 86.679688 211.785156 87.105469 C 211.644531 87.527344 211.433594 87.890625 211.152344 88.191406 C 210.875 88.496094 210.550781 88.714844 210.179688 88.847656 Z M 210.179688 88.847656 "/>
<g clip-path="url(#clip3)" clip-rule="nonzero">
<g clip-path="url(#clip4)" clip-rule="nonzero">
<g clip-path="url(#clip5)" clip-rule="nonzero">
<path style=" stroke:none;fill-rule:nonzero;fill:rgb(100%,8.628845%,8.628845%);fill-opacity:1;" d="M 110.910156 87.125 C 118.640625 90.976562 125.5625 95.585938 128.363281 97.582031 C 133.558594 85.019531 124.652344 79.191406 128.21875 70.214844 C 128.238281 70.171875 128.246094 70.128906 128.265625 70.085938 C 129.933594 68.960938 131.257812 67.605469 131.855469 66.40625 C 134.535156 61.03125 132.078125 56.167969 127.253906 53.761719 C 122.429688 51.359375 117.0625 52.328125 114.386719 57.699219 C 113.738281 58.996094 113.472656 61.257812 113.730469 63.625 C 108.894531 71.691406 99.171875 67.84375 92.269531 79.574219 C 95.371094 80.523438 103.167969 83.265625 110.910156 87.125 Z M 110.910156 87.125 "/>
</g>
</g>
</g>
<g clip-path="url(#clip6)" clip-rule="nonzero">
<g clip-path="url(#clip7)" clip-rule="nonzero">
<g clip-path="url(#clip8)" clip-rule="nonzero">
<path style=" stroke:none;fill-rule:nonzero;fill:rgb(100%,8.628845%,8.628845%);fill-opacity:1;" d="M 128.84375 108.375 C 127.808594 107.644531 117.695312 100.597656 106.988281 95.261719 C 96.273438 89.921875 84.554688 86.09375 83.351562 85.703125 C 83.183594 85.9375 83.023438 86.183594 82.894531 86.449219 L 40.007812 172.503906 C 38.789062 174.953125 50.472656 183.035156 60.375 187.96875 C 70.273438 192.902344 84.425781 197.695312 85.644531 195.246094 L 128.527344 109.1875 C 128.660156 108.921875 128.761719 108.648438 128.84375 108.375 Z M 103.214844 124.609375 C 104.035156 125.019531 104.519531 125.699219 104.304688 126.132812 C 104.089844 126.566406 103.253906 126.585938 102.433594 126.179688 L 94.941406 122.445312 L 89.664062 133.03125 L 97.15625 136.765625 C 97.976562 137.171875 98.460938 137.855469 98.246094 138.285156 C 98.03125 138.71875 97.195312 138.742188 96.375 138.335938 L 88.882812 134.601562 L 83.59375 145.214844 L 91.085938 148.949219 C 91.90625 149.355469 92.390625 150.035156 92.175781 150.46875 C 91.960938 150.902344 91.125 150.921875 90.304688 150.515625 L 82.8125 146.78125 L 77.539062 157.371094 L 85.03125 161.101562 C 85.847656 161.511719 86.335938 162.191406 86.117188 162.625 C 85.902344 163.054688 85.066406 163.078125 84.25 162.671875 L 76.757812 158.9375 L 71.480469 169.523438 L 78.972656 173.257812 C 79.792969 173.664062 80.277344 174.34375 80.0625 174.777344 C 79.847656 175.210938 79.011719 175.230469 78.191406 174.824219 L 70.699219 171.09375 L 65.621094 181.289062 C 65.550781 181.421875 65.464844 181.539062 65.371094 181.652344 L 72.917969 185.410156 C 73.734375 185.820312 74.222656 186.5 74.007812 186.933594 C 73.792969 187.367188 72.953125 187.386719 72.136719 186.980469 L 54.195312 178.039062 C 53.378906 177.628906 52.886719 176.949219 53.105469 176.515625 C 53.320312 176.082031 54.160156 176.0625 54.976562 176.46875 L 62.523438 180.230469 C 62.550781 180.085938 62.597656 179.949219 62.664062 179.8125 L 67.746094 169.617188 L 60.253906 165.882812 C 59.433594 165.476562 58.945312 164.792969 59.160156 164.359375 C 59.378906 163.925781 60.21875 163.910156 61.035156 164.316406 L 68.527344 168.050781 L 73.800781 157.460938 L 66.308594 153.730469 C 65.492188 153.320312 65.003906 152.640625 65.21875 152.207031 C 65.433594 151.773438 66.273438 151.753906 67.089844 152.160156 L 74.582031 155.894531 L 79.859375 145.308594 L 72.367188 141.574219 C 71.550781 141.167969 71.058594 140.484375 71.277344 140.050781 C 71.492188 139.617188 72.332031 139.597656 73.148438 140.007812 L 80.640625 143.738281 L 85.929688 133.125 L 78.4375 129.394531 C 77.621094 128.984375 77.128906 128.304688 77.347656 127.871094 C 77.5625 127.4375 78.402344 127.417969 79.21875 127.824219 L 86.710938 131.558594 L 91.988281 120.972656 L 84.492188 117.238281 C 83.675781 116.832031 83.1875 116.148438 83.402344 115.714844 C 83.617188 115.28125 84.457031 115.261719 85.277344 115.667969 L 92.769531 119.402344 L 98.042969 108.816406 L 90.550781 105.082031 C 89.734375 104.675781 89.246094 103.992188 89.460938 103.558594 C 89.675781 103.125 90.515625 103.105469 91.332031 103.515625 L 98.824219 107.25 L 102.195312 100.488281 C 102.621094 99.628906 103.632812 99.257812 104.449219 99.664062 C 105.265625 100.074219 105.582031 101.101562 105.152344 101.960938 L 101.78125 108.722656 L 109.273438 112.457031 C 110.09375 112.863281 110.578125 113.546875 110.363281 113.976562 C 110.148438 114.410156 109.3125 114.429688 108.496094 114.023438 L 101 110.289062 L 95.722656 120.875 L 103.21875 124.609375 Z M 103.214844 124.609375 "/>
</g>
</g>
</g>
<g clip-path="url(#clip9)" clip-rule="nonzero">
<path style=" stroke:none;fill-rule:nonzero;fill:rgb(100%,8.628845%,8.628845%);fill-opacity:1;" d="M 241.125 261.410156 C 241.125 254.914062 223.105469 249.488281 199.03125 248.152344 C 198.960938 247.578125 198.917969 247.019531 198.917969 246.488281 C 198.917969 242.523438 200.179688 238.394531 201.441406 235.253906 C 203.453125 232.4375 204.640625 228.996094 204.640625 225.273438 C 204.640625 215.789062 196.953125 208.101562 187.472656 208.101562 C 177.988281 208.101562 170.300781 215.789062 170.300781 225.273438 C 170.300781 229.078125 171.539062 232.589844 173.628906 235.4375 C 174.847656 238.503906 176.023438 242.527344 176.023438 246.636719 C 176.023438 247.121094 175.988281 247.628906 175.925781 248.152344 C 151.84375 249.488281 133.816406 254.914062 133.816406 261.410156 C 133.816406 261.730469 133.863281 262.058594 133.949219 262.386719 L 133.929688 262.394531 C 133.929688 262.394531 133.945312 262.4375 133.984375 262.515625 C 134.230469 263.355469 134.75 264.230469 135.515625 265.117188 C 138.5625 269.542969 146.554688 278.25 164.234375 282.570312 L 164.234375 294.125 C 164.234375 307.722656 174.898438 318.785156 188 318.785156 C 201.105469 318.785156 211.765625 307.722656 211.765625 294.125 L 211.765625 282.304688 C 228.738281 277.898438 236.46875 269.433594 239.441406 265.097656 C 240.191406 264.230469 240.699219 263.375 240.949219 262.546875 C 240.996094 262.449219 241.019531 262.394531 241.019531 262.394531 L 240.992188 262.386719 C 241.078125 262.054688 241.125 261.730469 241.125 261.410156 Z M 203.679688 294.90625 C 203.679688 303.960938 196.644531 311.328125 188.003906 311.328125 C 179.359375 311.328125 172.324219 303.960938 172.324219 294.90625 L 172.324219 284.109375 C 176.851562 284.75 181.882812 285.121094 187.472656 285.121094 C 193.5 285.121094 198.878906 284.691406 203.679688 283.953125 Z M 187.472656 275.953125 C 164.574219 275.953125 146.011719 267.722656 146.011719 261.925781 C 146.011719 257.222656 158.257812 253.242188 175.125 251.910156 C 174.828125 252.9375 174.472656 253.96875 174.097656 254.96875 C 163.09375 256.25 155.457031 259.066406 155.457031 262.332031 C 155.457031 266.804688 169.789062 273.160156 187.472656 273.160156 C 205.15625 273.160156 219.488281 266.804688 219.488281 262.332031 C 219.488281 259.066406 211.855469 256.253906 200.859375 254.972656 C 200.484375 253.972656 200.136719 252.941406 199.839844 251.914062 C 216.695312 253.246094 228.929688 257.226562 228.929688 261.925781 C 228.929688 267.722656 210.371094 275.953125 187.472656 275.953125 Z M 187.472656 275.953125 "/>
</g>
</g>
</svg>
