<?xml version="1.0" encoding="UTF-8"?>
<svg xmlns="http://www.w3.org/2000/svg" xmlns:xlink="http://www.w3.org/1999/xlink" width="375pt" height="374.999991pt" viewBox="0 0 375 374.999991" version="1.2">
<defs>
<clipPath id="clip1">
  <path d="M 77 37.5 L 118 37.5 L 118 98 L 77 98 Z M 77 37.5 "/>
</clipPath>
<clipPath id="clip2">
  <path d="M 37.5 77 L 78 77 L 78 138 L 37.5 138 Z M 37.5 77 "/>
</clipPath>
<clipPath id="clip3">
  <path d="M 127 37.5 L 168 37.5 L 168 98 L 127 98 Z M 127 37.5 "/>
</clipPath>
<clipPath id="clip4">
  <path d="M 297 217 L 337.5 217 L 337.5 278 L 297 278 Z M 297 217 "/>
</clipPath>
<clipPath id="clip5">
  <path d="M 192 242 L 313 242 L 313 337.5 L 192 337.5 Z M 192 242 "/>
</clipPath>
</defs>
<g id="surface1">
<g clip-path="url(#clip1)" clip-rule="nonzero">
<path style=" stroke:none;fill-rule:nonzero;fill:rgb(100%,8.628845%,8.628845%);fill-opacity:1;" d="M 87.5 67.5 C 87.5 56.050781 92.777344 47.5 97.5 47.5 C 102.222656 47.5 107.5 56.050781 107.5 67.5 C 107.5 78.949219 102.222656 87.5 97.5 87.5 C 92.777344 87.5 87.5 78.949219 87.5 67.5 Z M 117.5 67.5 C 117.5 50.679688 108.714844 37.5 97.5 37.5 C 86.285156 37.5 77.5 50.679688 77.5 67.5 C 77.5 84.320312 86.285156 97.5 97.5 97.5 C 108.714844 97.5 117.5 84.320312 117.5 67.5 "/>
</g>
<g clip-path="url(#clip2)" clip-rule="nonzero">
<path style=" stroke:none;fill-rule:nonzero;fill:rgb(100%,8.628845%,8.628845%);fill-opacity:1;" d="M 57.5 87.5 C 62.21875 87.5 67.5 96.050781 67.5 107.5 C 67.5 118.949219 62.21875 127.5 57.5 127.5 C 52.78125 127.5 47.5 118.949219 47.5 107.5 C 47.5 96.050781 52.78125 87.5 57.5 87.5 Z M 37.5 107.5 C 37.5 124.320312 46.285156 137.5 57.5 137.5 C 68.714844 137.5 77.5 124.320312 77.5 107.5 C 77.5 90.679688 68.714844 77.5 57.5 77.5 C 46.285156 77.5 37.5 90.679688 37.5 107.5 "/>
</g>
<g clip-path="url(#clip3)" clip-rule="nonzero">
<path style=" stroke:none;fill-rule:nonzero;fill:rgb(100%,8.628845%,8.628845%);fill-opacity:1;" d="M 147.5 87.5 C 142.777344 87.5 137.5 78.949219 137.5 67.5 C 137.5 56.050781 142.777344 47.5 147.5 47.5 C 152.222656 47.5 157.5 56.050781 157.5 67.5 C 157.5 78.949219 152.222656 87.5 147.5 87.5 Z M 147.5 37.5 C 136.285156 37.5 127.5 50.679688 127.5 67.5 C 127.5 84.320312 136.285156 97.5 147.5 97.5 C 158.714844 97.5 167.5 84.320312 167.5 67.5 C 167.5 50.679688 158.714844 37.5 147.5 37.5 "/>
</g>
<path style=" stroke:none;fill-rule:nonzero;fill:rgb(100%,8.628845%,8.628845%);fill-opacity:1;" d="M 187.5 127.5 C 182.777344 127.5 177.5 118.949219 177.5 107.5 C 177.5 96.050781 182.777344 87.5 187.5 87.5 C 192.222656 87.5 197.5 96.050781 197.5 107.5 C 197.5 118.949219 192.222656 127.5 187.5 127.5 Z M 187.5 77.5 C 176.285156 77.5 167.5 90.679688 167.5 107.5 C 167.5 124.320312 176.285156 137.5 187.5 137.5 C 198.714844 137.5 207.5 124.320312 207.5 107.5 C 207.5 90.679688 198.714844 77.5 187.5 77.5 "/>
<path style=" stroke:none;fill-rule:nonzero;fill:rgb(100%,8.628845%,8.628845%);fill-opacity:1;" d="M 92.5 147.5 C 93.1875 147.5 93.882812 147.535156 94.566406 147.605469 C 96.398438 147.792969 98.191406 146.953125 99.222656 145.417969 C 100.253906 143.886719 100.355469 141.910156 99.488281 140.28125 C 98.167969 137.804688 97.5 135.1875 97.5 132.5 C 97.5 121.472656 108.714844 112.5 122.5 112.5 C 136.285156 112.5 147.5 121.472656 147.5 132.5 C 147.5 135.1875 146.832031 137.804688 145.511719 140.28125 C 144.644531 141.910156 144.746094 143.886719 145.777344 145.417969 C 146.804688 146.953125 148.597656 147.792969 150.433594 147.605469 C 151.117188 147.535156 151.8125 147.5 152.5 147.5 C 163.527344 147.5 172.5 156.472656 172.5 167.5 C 172.5 178.527344 163.527344 187.5 152.5 187.5 C 141.472656 187.5 132.5 178.527344 132.5 167.5 C 132.5 162.925781 128.292969 159.605469 122.5 159.605469 C 116.707031 159.605469 112.5 162.925781 112.5 167.5 C 112.5 178.527344 103.527344 187.5 92.5 187.5 C 81.472656 187.5 72.5 178.527344 72.5 167.5 C 72.5 156.472656 81.472656 147.5 92.5 147.5 Z M 62.5 167.5 C 62.5 184.042969 75.957031 197.5 92.5 197.5 C 108.335938 197.5 121.34375 185.171875 122.425781 169.605469 C 122.476562 169.605469 122.523438 169.605469 122.574219 169.605469 C 123.65625 185.171875 136.664062 197.5 152.5 197.5 C 169.042969 197.5 182.5 184.042969 182.5 167.5 C 182.5 152.46875 171.390625 139.988281 156.949219 137.828125 C 157.316406 136.082031 157.5 134.304688 157.5 132.5 C 157.5 115.957031 141.800781 102.5 122.5 102.5 C 103.199219 102.5 87.5 115.957031 87.5 132.5 C 87.5 134.304688 87.683594 136.082031 88.050781 137.828125 C 73.609375 139.988281 62.5 152.46875 62.5 167.5 "/>
<path style=" stroke:none;fill-rule:nonzero;fill:rgb(100%,8.628845%,8.628845%);fill-opacity:1;" d="M 227.5 187.5 C 232.222656 187.5 237.5 196.050781 237.5 207.5 C 237.5 218.949219 232.222656 227.5 227.5 227.5 C 222.777344 227.5 217.5 218.949219 217.5 207.5 C 217.5 196.050781 222.777344 187.5 227.5 187.5 Z M 227.5 237.5 C 238.714844 237.5 247.5 224.320312 247.5 207.5 C 247.5 190.679688 238.714844 177.5 227.5 177.5 C 216.285156 177.5 207.5 190.679688 207.5 207.5 C 207.5 224.320312 216.285156 237.5 227.5 237.5 "/>
<path style=" stroke:none;fill-rule:nonzero;fill:rgb(100%,8.628845%,8.628845%);fill-opacity:1;" d="M 187.5 227.5 C 192.222656 227.5 197.5 236.050781 197.5 247.5 C 197.5 258.949219 192.222656 267.5 187.5 267.5 C 182.777344 267.5 177.5 258.949219 177.5 247.5 C 177.5 236.050781 182.777344 227.5 187.5 227.5 Z M 187.5 277.5 C 198.714844 277.5 207.5 264.320312 207.5 247.5 C 207.5 230.679688 198.714844 217.5 187.5 217.5 C 176.285156 217.5 167.5 230.679688 167.5 247.5 C 167.5 264.320312 176.285156 277.5 187.5 277.5 "/>
<path style=" stroke:none;fill-rule:nonzero;fill:rgb(100%,8.628845%,8.628845%);fill-opacity:1;" d="M 277.5 227.5 C 272.777344 227.5 267.5 218.949219 267.5 207.5 C 267.5 196.050781 272.777344 187.5 277.5 187.5 C 282.222656 187.5 287.5 196.050781 287.5 207.5 C 287.5 218.949219 282.222656 227.5 277.5 227.5 Z M 277.5 177.5 C 266.285156 177.5 257.5 190.679688 257.5 207.5 C 257.5 224.320312 266.285156 237.5 277.5 237.5 C 288.714844 237.5 297.5 224.320312 297.5 207.5 C 297.5 190.679688 288.714844 177.5 277.5 177.5 "/>
<g clip-path="url(#clip4)" clip-rule="nonzero">
<path style=" stroke:none;fill-rule:nonzero;fill:rgb(100%,8.628845%,8.628845%);fill-opacity:1;" d="M 317.5 267.5 C 312.777344 267.5 307.5 258.949219 307.5 247.5 C 307.5 236.050781 312.777344 227.5 317.5 227.5 C 322.222656 227.5 327.5 236.050781 327.5 247.5 C 327.5 258.949219 322.222656 267.5 317.5 267.5 Z M 317.5 217.5 C 306.285156 217.5 297.5 230.679688 297.5 247.5 C 297.5 264.320312 306.285156 277.5 317.5 277.5 C 328.714844 277.5 337.5 264.320312 337.5 247.5 C 337.5 230.679688 328.714844 217.5 317.5 217.5 "/>
</g>
<g clip-path="url(#clip5)" clip-rule="nonzero">
<path style=" stroke:none;fill-rule:nonzero;fill:rgb(100%,8.628845%,8.628845%);fill-opacity:1;" d="M 222.5 287.5 C 223.1875 287.5 223.882812 287.535156 224.566406 287.605469 C 226.402344 287.792969 228.191406 286.953125 229.222656 285.417969 C 230.253906 283.886719 230.355469 281.910156 229.488281 280.28125 C 228.167969 277.804688 227.5 275.1875 227.5 272.5 C 227.5 261.472656 238.714844 252.5 252.5 252.5 C 266.285156 252.5 277.5 261.472656 277.5 272.5 C 277.5 275.1875 276.832031 277.804688 275.511719 280.28125 C 274.644531 281.910156 274.746094 283.886719 275.777344 285.417969 C 276.804688 286.953125 278.601562 287.792969 280.433594 287.605469 C 281.117188 287.535156 281.8125 287.5 282.5 287.5 C 293.527344 287.5 302.5 296.472656 302.5 307.5 C 302.5 318.527344 293.527344 327.5 282.5 327.5 C 271.472656 327.5 262.5 318.527344 262.5 307.5 C 262.5 302.925781 258.292969 299.605469 252.5 299.605469 C 246.707031 299.605469 242.5 302.925781 242.5 307.5 C 242.5 318.527344 233.527344 327.5 222.5 327.5 C 211.472656 327.5 202.5 318.527344 202.5 307.5 C 202.5 296.472656 211.472656 287.5 222.5 287.5 Z M 222.5 337.5 C 238.335938 337.5 251.34375 325.171875 252.425781 309.605469 C 252.476562 309.605469 252.523438 309.605469 252.574219 309.605469 C 253.65625 325.171875 266.664062 337.5 282.5 337.5 C 299.042969 337.5 312.5 324.042969 312.5 307.5 C 312.5 292.46875 301.390625 279.988281 286.949219 277.828125 C 287.316406 276.082031 287.5 274.304688 287.5 272.5 C 287.5 255.957031 271.800781 242.5 252.5 242.5 C 233.199219 242.5 217.5 255.957031 217.5 272.5 C 217.5 274.304688 217.683594 276.082031 218.050781 277.828125 C 203.609375 279.988281 192.5 292.46875 192.5 307.5 C 192.5 324.042969 205.957031 337.5 222.5 337.5 "/>
</g>
</g>
</svg>
