<?xml version="1.0" encoding="UTF-8"?>
<svg xmlns="http://www.w3.org/2000/svg" xmlns:xlink="http://www.w3.org/1999/xlink" width="375pt" height="374.999991pt" viewBox="0 0 375 374.999991" version="1.2">
<defs>
<clipPath id="clip1">
  <path d="M 88 58 L 295 58 L 295 337.5 L 88 337.5 Z M 88 58 "/>
</clipPath>
</defs>
<g id="surface1">
<g clip-path="url(#clip1)" clip-rule="nonzero">
<path style=" stroke:none;fill-rule:nonzero;fill:rgb(100%,8.628845%,8.628845%);fill-opacity:1;" d="M 290.957031 100.28125 C 288.210938 98.738281 285.292969 98.707031 284.445312 100.207031 L 255.382812 151.882812 C 254.078125 152.121094 252.277344 151.75 250.539062 150.773438 C 248.800781 149.792969 247.546875 148.449219 247.066406 147.207031 L 276.132812 95.53125 C 276.980469 94.03125 275.4375 91.554688 272.6875 90.007812 C 269.941406 88.464844 267.019531 88.429688 266.179688 89.933594 L 237.210938 141.441406 C 235.890625 141.792969 233.949219 141.441406 232.085938 140.394531 C 230.710938 139.621094 229.640625 138.617188 229.015625 137.621094 L 258.320312 85.511719 C 259.164062 84.015625 257.625 81.542969 254.871094 79.984375 C 252.125 78.445312 249.207031 78.410156 248.363281 79.914062 L 234.429688 104.6875 L 217.449219 134.882812 L 215.917969 137.609375 C 208.785156 150.277344 210.71875 165.289062 219.808594 173.640625 L 186.773438 229.25 L 185.226562 163.917969 C 185.226562 163.46875 185.226562 163.03125 185.21875 162.597656 C 200.820312 158.625 212.738281 137.050781 212.738281 111.023438 C 212.738281 82.171875 198.089844 58.785156 180.019531 58.785156 C 161.957031 58.785156 147.308594 82.171875 147.308594 111.023438 C 147.308594 137.054688 159.234375 158.628906 174.832031 162.597656 C 174.828125 163.03125 174.820312 163.46875 174.820312 163.917969 L 173.347656 226.066406 C 143.523438 167.589844 109.015625 99.140625 97.769531 73.714844 C 81.75 37.496094 79.742188 163.808594 157.558594 220.410156 L 157.714844 220.269531 L 172.730469 252.082031 L 172.710938 252.925781 L 133.925781 318.226562 C 131.394531 322.722656 132.988281 328.417969 137.484375 330.945312 C 141.984375 333.476562 147.679688 331.878906 150.210938 327.382812 L 171.914062 286.554688 L 170.921875 328.433594 C 170.921875 333.460938 174.996094 337.539062 180.019531 337.539062 C 185.046875 337.539062 189.125 333.460938 189.125 328.433594 L 188.089844 284.613281 L 208.546875 327.945312 C 210.425781 331.707031 215.003906 333.21875 218.757812 331.335938 C 222.507812 329.457031 224.027344 324.886719 222.148438 321.132812 C 222.148438 321.132812 207.644531 293.097656 188.40625 255.53125 L 229.148438 178.890625 C 241.007812 182.320312 254.824219 176.179688 261.953125 163.5 L 263.488281 160.777344 L 280.46875 130.585938 L 294.402344 105.804688 C 295.246094 104.304688 293.707031 101.824219 290.957031 100.28125 "/>
</g>
</g>
</svg>
